HIERARCHY
ROOT Bip001_Pelvis
{
  OFFSET 33.2923 95.8902 -28.781
  CHANNELS 6 Xposition Yposition Zposition Zrotation Xrotation Yrotation
  JOINT Bip001_Spine
  {
    OFFSET 1.4188e-005 10.2191 -0.0116013
    CHANNELS 3 Zrotation Xrotation Yrotation
    JOINT Bip001_L_Thigh
    {
      OFFSET 11.0458 -10.2192 0.0116197
      CHANNELS 3 Zrotation Xrotation Yrotation
      JOINT Bip001_L_Calf
      {
        OFFSET -0.707118 -44.0221 0.360014
        CHANNELS 3 Zrotation Xrotation Yrotation
        JOINT Bip001_L_Foot
        {
          OFFSET -0.651902 -40.5938 -3.56146
          CHANNELS 3 Zrotation Xrotation Yrotation
          JOINT Bip001_L_Toe0
          {
            OFFSET 0.0530839 -10.2181 13.1504
            CHANNELS 3 Zrotation Xrotation Yrotation
            End Site
            {
              OFFSET -1.02532e-005 0 7.55606
            }
          }
        }
      }
    }
    JOINT Bip001_R_Thigh
    {
      OFFSET -11.0458 -10.2191 0.0115893
      CHANNELS 3 Zrotation Xrotation Yrotation
      JOINT Bip001_R_Calf
      {
        OFFSET 0.706994 -44.0221 0.35984
        CHANNELS 3 Zrotation Xrotation Yrotation
        JOINT Bip001_R_Foot
        {
          OFFSET 0.651786 -40.5938 -3.5613
          CHANNELS 3 Zrotation Xrotation Yrotation
          JOINT Bip001_R_Toe0
          {
            OFFSET -0.0531479 -10.2181 13.1504
            CHANNELS 3 Zrotation Xrotation Yrotation
            End Site
            {
              OFFSET -1.02894e-005 0 7.55606
            }
          }
        }
      }
    }
    JOINT Bip001_Spine1
    {
      OFFSET 1.87041e-005 14.5736 1.08638
      CHANNELS 3 Zrotation Xrotation Yrotation
      JOINT Bip001_Spine2
      {
        OFFSET 2.24614e-005 14.5058 -1.69078
        CHANNELS 3 Zrotation Xrotation Yrotation
        JOINT Bip001_Neck
        {
          OFFSET 2.20278e-005 15.3945 -0.489414
          CHANNELS 3 Zrotation Xrotation Yrotation
          JOINT Bip001_L_Clavicle
          {
            OFFSET 6.06036 -0.000579998 0.00836775
            CHANNELS 3 Zrotation Xrotation Yrotation
            JOINT Bip001_L_UpperArm
            {
              OFFSET 11.5509 -0.0600302 0.00193952
              CHANNELS 3 Zrotation Xrotation Yrotation
              JOINT Bip001_L_Forearm
              {
                OFFSET 25.9523 0.0806089 -2.15551
                CHANNELS 3 Zrotation Xrotation Yrotation
                JOINT Bip001_L_Hand
                {
                  OFFSET 32.2476 0.153767 1.63968
                  CHANNELS 3 Zrotation Xrotation Yrotation
                  JOINT Bip001_L_Finger0
                  {
                    OFFSET 6.04639 -2.20976 5.90322
                    CHANNELS 3 Zrotation Xrotation Yrotation
                    End Site
                    {
                      OFFSET 4.22376 -1.43895 0.606486
                    }
                  }
                  JOINT Bip001_L_Finger1
                  {
                    OFFSET 11.0826 -0.704819 -0.198153
                    CHANNELS 3 Zrotation Xrotation Yrotation
                    End Site
                    {
                      OFFSET 6.20028 -0.397518 -0.0787166
                    }
                  }
                }
              }
            }
          }
          JOINT Bip001_R_Clavicle
          {
            OFFSET -6.06036 -0.000563197 0.00835105
            CHANNELS 3 Zrotation Xrotation Yrotation
            JOINT Bip001_R_UpperArm
            {
              OFFSET -11.5509 -0.0599978 0.00190698
              CHANNELS 3 Zrotation Xrotation Yrotation
              JOINT Bip001_R_Forearm
              {
                OFFSET -25.9523 0.080682 -2.1559
                CHANNELS 3 Zrotation Xrotation Yrotation
                JOINT Bip001_R_Hand
                {
                  OFFSET -32.2476 0.153858 1.63991
                  CHANNELS 3 Zrotation Xrotation Yrotation
                  JOINT Bip001_R_Finger0
                  {
                    OFFSET -6.04641 -2.20974 5.90321
                    CHANNELS 3 Zrotation Xrotation Yrotation
                    End Site
                    {
                      OFFSET -4.22376 -1.43894 0.606474
                    }
                  }
                  JOINT Bip001_R_Finger1
                  {
                    OFFSET -11.0826 -0.704789 -0.198184
                    CHANNELS 3 Zrotation Xrotation Yrotation
                    End Site
                    {
                      OFFSET -6.20028 -0.397501 -0.0787338
                    }
                  }
                }
              }
            }
          }
          JOINT Bip001_Head
          {
            OFFSET 1.09673e-005 11.2744 2.05948
            CHANNELS 3 Zrotation Xrotation Yrotation
            End Site
            {
              OFFSET 2.89576e-005 20.8808 -2.77728e-005
            }
          }
        }
      }
    }
  }
}
MOTION
Frames:	13
Frame Time:	0.04
31.9898 95.8964 -28.3511 0.74021 -0.99429 2.30159 -0.151443 3.08378 -0.0401256 5.16509 -3.40811 7.32682 -0.237652 7.29006 -12.8381 2.36327 -3.17192 -0.0378673 -3.87301 -3.19931 5.6516 -3.01962 -3.24302 -1.59707 0.297259 10.6664 0.014385 -5.89664 -10.1221 1.53339 1.91709 -6.9181 2.4117 -0.314042 6.16221 -0.0717778 -0.314492 6.16223 -0.0718643 1.87406 2.98182 -4.51487 -25.9592 -1.93795 -2.65899 -49.0231 40.6631 -2.65613 12.5114 0.193627 -25.349 8.08121 1.12064 -2.1385 -3.18055e-015 -3.18055e-015 1.59028e-015 -6.36111e-015 0 3.18055e-015 27.6574 5.62977 18.8801 48.6978 45.0615 1.71386 -5.91493 12.1587 2.91153 -0.197304 3.77663 0.295302 3.97569e-016 0 9.93923e-017 3.97569e-016 -1.59028e-015 -3.97569e-016 1.23899 11.7549 -4.17483 
31.9894 95.8954 -28.3212 0.722529 -0.995229 2.27697 -0.149173 3.11319 -0.0815419 5.20366 -3.34706 7.46763 -0.329541 7.15194 -12.8788 2.77371 -2.83834 -0.0607511 -3.62326 -3.48399 5.40269 -2.98371 -3.26387 -1.52507 0.266984 10.669 -0.00775985 -5.88287 -10.1118 1.55537 1.92043 -6.93357 2.43398 -0.304953 6.22661 -0.154836 -0.305404 6.22663 -0.154921 1.95895 2.96188 -4.53524 -26.0291 -1.92592 -2.67861 -48.9512 40.6372 -2.53478 12.4424 0.10589 -25.33 8.06051 1.02322 -2.06574 -1.76556e-031 -3.18055e-015 -3.18055e-015 -1.76556e-031 -6.36111e-015 -1.59028e-015 27.6747 5.27922 17.8275 49.5448 43.6338 0.897891 -6.23936 12.7216 3.76587 -0.45901 2.51106 2.29934 7.95139e-016 3.18055e-015 -7.95139e-016 3.97569e-016 3.18056e-015 -5.96354e-016 0.938384 11.737 -4.07571 
31.995 95.8886 -28.2823 0.694972 -1.0003 2.29338 -0.14157 3.14327 -0.125048 5.20825 -3.39204 7.45559 -0.334908 7.22206 -12.9266 3.08085 -2.69628 -0.0745088 -3.58725 -3.66296 5.36874 -2.97336 -3.26323 -1.6408 0.248145 10.6693 0.0631193 -5.87981 -10.1398 1.6177 1.91971 -6.91872 2.43319 -0.276882 6.28683 -0.242853 -0.276883 6.28686 -0.242853 2.14323 3.03942 -4.59742 -26.1085 -1.95555 -2.9267 -49.031 40.8483 -2.43232 12.309 -0.254558 -25.0377 7.8542 0.934372 -1.92354 3.18055e-015 3.18055e-015 -0 1.76556e-031 6.36111e-015 -1.59028e-015 27.5917 4.91352 17.0216 50.1562 41.8663 0.28383 -6.76934 12.5435 4.86898 -0.866955 2.22414 3.81616 1.98785e-016 -6.36111e-015 1.59028e-015 1.98785e-016 -3.18056e-015 5.96354e-016 0.420186 11.6584 -3.91282 
31.9855 95.8984 -28.2895 0.567415 -0.967166 2.19548 -0.108436 3.15817 -0.156689 5.3853 -3.62189 7.22287 -0.252789 7.73399 -12.3487 1.4431 -4.14067 -0.00348026 -4.37822 -2.40342 6.125 -2.88794 -3.21756 -1.46857 0.308607 10.4134 0.129012 -5.9413 -10.0075 1.52431 1.91919 -6.91285 2.43099 -0.208901 6.31663 -0.309094 -0.20883 6.31664 -0.308559 2.14827 2.97539 -4.54307 -26.059 -1.82388 -3.11761 -49.0849 41.1189 -2.42067 12.2923 -0.325105 -24.6722 7.73667 0.734135 -1.92733 6.36111e-015 0 -4.77083e-015 3.18055e-015 3.18056e-015 -3.18055e-015 27.6717 4.72929 16.3115 50.4615 40.7935 0.044394 -7.60566 10.9316 6.21243 -2.76654 1.15438 3.55731 -5.96354e-016 0 -1.59028e-015 -7.95139e-016 3.18056e-015 -2.88238e-015 0.169818 11.7645 -3.77893 
32.0231 95.879 -28.2402 0.566862 -1.00442 1.85986 -0.105461 3.17764 -0.145934 5.20179 -3.3392 7.26446 -0.264729 7.25959 -12.3856 3.4908 -2.44902 -0.102691 -3.44955 -3.85695 5.27257 -2.98213 -3.29568 -1.38081 0.385278 10.5701 0.212861 -5.90033 -10.1114 1.66698 1.91776 -6.90492 2.42182 -0.203281 6.35553 -0.286658 -0.203281 6.35553 -0.286659 2.22478 2.89892 -4.54467 -26.1061 -1.69407 -3.30629 -49.1691 41.1838 -2.33231 12.2645 -0.361708 -24.5548 7.66564 0.743096 -1.81947 -6.36111e-015 -6.36111e-015 1.59028e-015 -3.18055e-015 -6.36111e-015 3.18055e-015 27.7565 4.66584 15.8405 50.0238 39.8008 0.880258 -8.19335 8.18068 6.67444 -3.00559 1.69368 3.24051 -3.97569e-016 3.18055e-015 5.96354e-016 -3.97569e-016 3.18056e-015 1.98785e-016 0.0870109 11.8323 -3.72653 
32.0643 95.8968 -28.207 0.565794 -1.02992 1.5086 -0.107574 3.18635 -0.133739 5.16427 -3.26067 7.35506 -0.0980991 7.39161 -12.0595 2.16239 -3.56054 -0.0277109 -4.1425 -2.92716 5.92383 -3.07964 -3.26424 -1.44501 0.443997 10.4695 0.310898 -5.79559 -10.0901 1.95394 1.91421 -6.86309 2.40688 -0.208169 6.37295 -0.262084 -0.208169 6.37295 -0.262084 2.29859 2.82925 -4.56968 -26.095 -1.58136 -3.48021 -49.3195 41.1133 -2.28196 12.2324 -0.332882 -24.5394 7.6882 0.742819 -1.84634 -3.18055e-015 -9.54166e-015 3.18055e-015 3.53113e-031 -6.36111e-015 3.18055e-015 27.7214 4.69006 15.7004 49.4609 40.3988 1.86751 -9.182 6.91947 7.15181 -3.9814 2.06086 2.65675 -1.59028e-015 0 -3.97569e-016 -1.59028e-015 -3.18056e-015 -7.95139e-016 0.120573 11.8624 -3.74286 
32.0675 95.903 -28.2663 0.334147 -0.882477 1.44895 -0.0576041 3.16103 -0.185571 5.35033 -3.59479 6.78723 -0.0834564 7.79718 -11.3281 1.59187 -4.14443 -0.00532203 -4.36625 -2.58729 6.14409 -2.94082 -3.27352 -1.41427 0.494263 10.1165 0.134339 -5.66907 -9.92695 2.22838 1.89728 -6.79494 2.34947 -0.104446 6.32224 -0.369959 -0.104869 6.32223 -0.369383 2.24293 2.62167 -4.5753 -25.9926 -1.34851 -3.53833 -49.3192 41.1979 -2.28638 12.1692 -0.464009 -24.6725 7.78986 0.838736 -1.86745 -3.18055e-015 0 -0 -3.18055e-015 0 1.59028e-015 27.7943 4.95109 15.7694 48.3811 41.2486 3.29957 -10.0695 5.50881 7.47811 -4.81892 2.55247 1.96 0 0 -1.19271e-015 1.59028e-015 3.18056e-015 -1.19271e-015 0.389584 12.0408 -3.85218 
32.1016 95.8912 -28.2952 0.232258 -0.801535 1.18606 -0.0392594 3.14268 -0.183763 5.27864 -3.57734 6.52801 -0.122788 7.56968 -11.0469 3.36622 -2.76705 -0.0780499 -3.52497 -3.92133 5.36869 -2.93443 -3.40889 -1.26249 0.564356 10.1344 0.0676225 -5.59639 -9.93242 2.39337 1.88835 -6.7419 2.32668 -0.0685612 6.28546 -0.366192 -0.0685613 6.28546 -0.366192 2.19103 2.44102 -4.60549 -25.9199 -1.10777 -3.72645 -49.2679 41.3455 -2.30255 12.2472 -0.48578 -24.7364 7.70058 0.91998 -1.95963 3.18055e-015 -3.18055e-015 -3.18055e-015 8.82782e-032 3.18056e-015 -1.59028e-015 27.8326 5.26906 16.0895 47.0821 42.2384 4.62201 -11.188 3.75555 8.01474 -5.07126 2.83508 1.52016 6.36111e-015 -3.18055e-015 -1.59028e-015 4.77083e-015 0 -2.38542e-015 0.738691 12.1876 -4.01071 
32.0893 95.8944 -28.3341 0.105567 -0.703661 0.864733 -0.0250023 3.12035 -0.153357 5.41719 -3.68596 6.22914 -0.21398 7.73761 -10.4839 3.19246 -2.98723 -0.0666338 -3.67901 -3.74999 5.52461 -2.82681 -3.51311 -0.81937 0.60757 10.0041 0.0114347 -5.59938 -9.78448 2.29644 1.88321 -6.73668 2.32095 -0.0274661 6.24107 -0.306795 -0.0271988 6.2411 -0.306573 2.15061 2.20203 -4.66301 -25.8598 -0.838967 -3.82731 -49.1151 41.5364 -2.49279 12.2922 -0.516663 -24.722 7.73962 0.915693 -1.93989 6.36111e-015 -3.18055e-015 -1.59028e-015 3.18055e-015 -6.36111e-015 -0 27.709 5.65571 16.5135 45.7387 43.0153 5.906 -12.1205 3.10944 8.41215 -7.09754 3.05617 0.854186 -8.82781e-032 3.18055e-015 1.59028e-015 3.18055e-015 6.36111e-015 1.59028e-015 1.00615 12.4092 -4.16696 
32.1431 95.892 -28.334 0.114247 -0.729875 0.658114 -0.0274992 3.11812 -0.133605 5.32241 -3.58527 6.02244 -0.202544 7.62759 -10.0981 3.51523 -2.73102 -0.0832115 -3.49721 -4.00765 5.36337 -2.89363 -3.5498 -0.747532 0.631937 10.0611 -0.00576862 -5.5396 -9.80722 2.42724 1.87428 -6.70429 2.3233 -0.0349759 6.24141 -0.266699 -0.0348631 6.24142 -0.266703 2.05162 2.00426 -4.66965 -25.7419 -0.602554 -3.91365 -48.8784 41.5326 -2.85016 12.3716 -0.358571 -24.6354 7.66747 0.960952 -2.05778 1.76556e-031 -3.18055e-015 3.18055e-015 -0 0 1.59028e-015 27.6266 5.94404 16.8143 44.2756 43.4132 7.35591 -13.2311 3.62602 8.64031 -9.16271 2.8108 0.215057 3.18055e-015 0 -7.95139e-016 0 0 -7.95139e-016 1.34543 12.5421 -4.31111 
32.1903 95.8938 -28.3315 0.140299 -0.739856 0.511432 -0.0307273 3.11524 -0.119925 5.25132 -3.59247 6.21735 -0.0939504 7.74922 -10.0588 3.16169 -3.0508 -0.0636687 -3.58028 -3.76559 5.43694 -2.96333 -3.59423 -0.663219 0.664057 10.1253 0.0050323 -5.53542 -9.82101 2.44128 1.87002 -6.69328 2.334 -0.0499105 6.24166 -0.238845 -0.0499105 6.24167 -0.238846 1.98127 1.87404 -4.65921 -25.6646 -0.456711 -3.93967 -48.6353 41.3333 -3.17578 12.2384 -0.427317 -24.6711 7.77823 1.04143 -2.05165 -3.18055e-015 6.36111e-015 -0 8.82782e-032 3.18056e-015 -1.59028e-015 27.5745 6.17354 17.1254 42.9035 43.4208 8.87383 -14.4113 4.51408 8.40667 -11.4811 2.16262 -0.465994 0 0 -1.59028e-015 -8.82782e-032 -3.18056e-015 -1.59028e-015 1.55532 12.6303 -4.39893 
32.2365 95.8894 -28.3237 0.206977 -0.75993 0.414229 -0.0471722 3.10918 -0.112764 5.1178 -3.44676 6.1506 -0.0884309 7.52533 -10.0321 3.63214 -2.5867 -0.0912192 -3.40696 -4.11862 5.29512 -3.06801 -3.67707 -0.643311 0.710109 10.3358 -0.00425293 -5.5013 -9.88763 2.4978 1.8626 -6.66685 2.31244 -0.0883669 6.21843 -0.223874 -0.0883672 6.21846 -0.223874 1.86481 1.92983 -4.60003 -25.5085 -0.481204 -3.98594 -48.5041 41.1555 -3.33901 12.2332 -0.467411 -24.9157 7.88685 0.893259 -2.10856 -3.18055e-015 -9.54166e-015 -0 -0 -6.36111e-015 -0 27.5226 6.21678 17.5122 41.9823 42.994 9.93601 -15.702 5.8501 8.30496 -13.9621 1.34079 -1.42956 -3.18055e-015 3.18055e-015 -0 -3.18055e-015 6.36111e-015 1.59028e-015 1.80674 12.5818 -4.45453 
32.2681 95.8979 -28.2999 0.262139 -0.779376 0.370594 -0.0600959 3.09559 -0.104534 5.03811 -3.3842 6.38477 0.00412207 7.51573 -10.1422 3.3846 -2.79385 -0.0785692 -3.50643 -3.9426 5.36299 -3.14794 -3.69871 -0.743168 0.705871 10.4645 0.0116891 -5.44869 -9.92465 2.60946 1.84312 -6.61235 2.30502 -0.116035 6.1911 -0.207218 -0.116035 6.19111 -0.207219 1.78991 1.96856 -4.53666 -25.4583 -0.500052 -4.00114 -48.3678 40.9742 -3.40736 12.2127 -0.574312 -25.2967 7.85989 0.987272 -2.1789 3.18055e-015 6.36111e-015 1.59028e-015 3.18055e-015 0 -0 27.4838 6.27693 17.8712 41.3054 42.1998 10.6476 -16.9757 7.4872 8.20325 -16.3181 0.486778 -2.53802 3.18055e-015 -3.18055e-015 -0 -0 0 1.59028e-015 1.95134 12.6037 -4.46637 
